<?xml version="1.0" encoding="UTF-8" standalone="no"?>
<svg width="938px" height="179px" viewBox="0 0 938 179" version="1.1" xmlns="http://www.w3.org/2000/svg" xmlns:xlink="http://www.w3.org/1999/xlink" xmlns:sketch="http://www.bohemiancoding.com/sketch/ns">
    <title>logo</title>
    <description>Created with Sketch (http://www.bohemiancoding.com/sketch)</description>
    <defs></defs>
    <g id="Page 1" fill="#D8D8D8" fill-rule="evenodd">
        <g id="Layer_1" fill="#000000">
            <g id="tagline">
                <path d="M12.4500008,156.412994 L4.88300085,145.507995 L12.0940008,145.507995 L16.144001,151.516994 L20.150001,145.507995 L27.138001,145.507995 L19.5710011,156.278995 L28.0720015,168.518994 L20.8620014,168.518994 L16.0550013,161.263994 L11.2480011,168.518994 L4.17099953,168.518994 L12.4500008,156.412994 L12.4500008,156.412994 Z M12.4500008,156.412994" id="Shape" fill="#FF2B06"></path>
                <path d="M58.026001,154.899002 L35.5480003,154.899002 L35.5480003,150.136002 L58.026001,150.136002 L58.026001,154.899002 L58.026001,154.899002 Z M58.026001,164.425003 L35.5480003,164.425003 L35.5480003,159.662003 L58.026001,159.662003 L58.026001,164.425003 L58.026001,164.425003 Z M58.026001,164.425003" id="Shape"></path>
                <path d="M75.2490005,141.947006 L68.9290004,141.947006 L68.9290004,136.739006 L75.2490005,136.739006 L75.2490005,141.947006 L75.2490005,141.947006 Z M68.9290009,145.507996 L75.249001,145.507996 L75.249001,168.519995 L68.9290009,168.519995 L68.9290009,145.507996 L68.9290009,145.507996 Z M68.9290009,145.507996" id="Shape"></path>
                <path d="M79.3430023,145.507996 L85.3520021,145.507996 L85.3520021,148.712996 L85.4850021,148.712996 C87.0880022,146.130996 89.8470021,144.884995 92.5180021,144.884995 C99.2390023,144.884995 100.930002,148.667995 100.930002,154.364995 L100.930002,168.518995 L94.6100017,168.518995 L94.6100017,155.521996 C94.6100017,151.738996 93.4970016,149.869996 90.5600015,149.869996 C87.1330014,149.869996 85.6640016,151.783996 85.6640016,156.456995 L85.6640016,168.518996 L79.3430015,168.518996 L79.3430015,145.507996 L79.3430023,145.507996 Z M79.3430023,145.507996" id="Shape"></path>
                <path d="M121.269997,165.582001 L121.180997,165.582001 C119.711997,168.074001 117.130996,169.143001 114.192997,169.143001 C107.249997,169.143001 103.866997,163.179001 103.866997,156.814 C103.866997,150.627001 107.293997,144.885 114.059996,144.885 C116.774996,144.885 119.445997,146.042 120.913996,148.312001 L120.869996,148.312001 L120.958996,148.312001 L120.958996,136.739001 L127.278997,136.739001 L127.278997,168.519001 L121.269997,168.519001 L121.269997,165.582001 L121.269997,165.582001 Z M115.75,149.647003 C111.61,149.647003 110.186,153.208003 110.186,156.991003 C110.186,160.596003 111.833,164.379003 115.75,164.379003 C119.934,164.379003 121.18,160.730003 121.18,156.946003 C121.181,153.207993 119.845001,149.647003 115.75,149.647003 L115.75,149.647003 Z M115.75,149.647003" id="Shape"></path>
                <path d="M136.356003,158.548996 C136.534003,162.554996 138.492003,164.379996 142.009003,164.379996 C144.546003,164.379996 146.593003,162.821996 146.994003,161.397996 L152.558003,161.397996 C150.777003,166.827996 146.994003,169.142996 141.787003,169.142996 C134.532003,169.142996 130.037003,164.157995 130.037003,157.036996 C130.037003,150.137995 134.799003,144.885996 141.787003,144.885996 C149.620003,144.885996 153.404003,151.472996 152.959003,158.550996 L136.356003,158.550996 L136.356003,158.548996 Z M146.638,154.542999 C146.059,151.337999 144.680001,149.646999 141.608,149.646999 C137.602,149.646999 136.445,152.762999 136.356,154.542999 L146.638,154.542999 L146.638,154.542999 Z M146.638,154.542999" id="Shape"></path>
                <path d="M155.804993,145.507996 L161.813993,145.507996 L161.813993,148.445996 L161.902993,148.445996 C163.415993,145.997996 165.908993,144.884995 168.756993,144.884995 C175.966993,144.884995 179.216993,150.715995 179.216993,157.258995 C179.216993,163.401995 175.833993,169.142995 169.112993,169.142995 C166.352993,169.142995 163.726992,167.940995 162.213992,165.670995 L162.124992,165.670995 L162.124992,176.619995 L155.803992,176.619995 L155.803992,145.507996 L155.804993,145.507996 Z M172.897003,157.080994 C172.897003,153.430994 171.428003,149.647994 167.378003,149.647994 C163.239003,149.647994 161.903003,153.341994 161.903003,157.080994 C161.903003,160.819994 163.327003,164.379993 167.422003,164.379993 C171.561996,164.380005 172.897003,160.819 172.897003,157.080994 L172.897003,157.080994 Z M172.897003,157.080994" id="Shape"></path>
                <path d="M187.315994,158.548996 C187.493994,162.554996 189.451994,164.379996 192.968994,164.379996 C195.505994,164.379996 197.552994,162.821996 197.953994,161.397996 L203.517994,161.397996 C201.736994,166.827996 197.953994,169.142996 192.746994,169.142996 C185.491994,169.142996 180.996994,164.157995 180.996994,157.036996 C180.996994,150.137995 185.758995,144.885996 192.746994,144.885996 C200.579995,144.885996 204.363994,151.472996 203.918994,158.550996 L187.315994,158.550996 L187.315994,158.548996 Z M197.598007,154.542999 C197.019007,151.337999 195.640007,149.646999 192.568007,149.646999 C188.562007,149.646999 187.405007,152.762999 187.316007,154.542999 L197.598007,154.542999 L197.598007,154.542999 Z M197.598007,154.542999" id="Shape"></path>
                <path d="M206.764999,145.507996 L212.773999,145.507996 L212.773999,148.712996 L212.906999,148.712996 C214.509999,146.130996 217.268999,144.884995 219.939999,144.884995 C226.660999,144.884995 228.351999,148.667995 228.351999,154.364995 L228.351999,168.518995 L222.031999,168.518995 L222.031999,155.521996 C222.031999,151.738996 220.918999,149.869996 217.981999,149.869996 C214.554999,149.869996 213.085999,151.783996 213.085999,156.456995 L213.085999,168.518996 L206.764999,168.518996 L206.764999,145.507996 L206.764999,145.507996 Z M206.764999,145.507996" id="Shape"></path>
                <path d="M248.690994,165.582001 L248.601994,165.582001 C247.132994,168.074001 244.551994,169.143001 241.613994,169.143001 C234.670995,169.143001 231.287994,163.179001 231.287994,156.814 C231.287994,150.627001 234.714994,144.885 241.480994,144.885 C244.195994,144.885 246.866994,146.042 248.334994,148.312001 L248.290994,148.312001 L248.379994,148.312001 L248.379994,136.739001 L254.699994,136.739001 L254.699994,168.519001 L248.690994,168.519001 L248.690994,165.582001 L248.690994,165.582001 Z M243.171997,149.647003 C239.031997,149.647003 237.607997,153.208003 237.607997,156.991003 C237.607997,160.596003 239.254997,164.379003 243.171997,164.379003 C247.355997,164.379003 248.601997,160.730003 248.601997,156.946003 C248.602997,153.207993 247.266998,149.647003 243.171997,149.647003 L243.171997,149.647003 Z M243.171997,149.647003" id="Shape"></path>
                <path d="M263.778015,158.548996 C263.956015,162.554996 265.914015,164.379996 269.431015,164.379996 C271.968015,164.379996 274.015015,162.821996 274.416015,161.397996 L279.980015,161.397996 C278.199015,166.827996 274.416015,169.142996 269.209015,169.142996 C261.954015,169.142996 257.459015,164.157995 257.459015,157.036996 C257.459015,150.137995 262.221015,144.885996 269.209015,144.885996 C277.042016,144.885996 280.826015,151.472996 280.381015,158.550996 L263.778015,158.550996 L263.778015,158.548996 Z M274.059998,154.542999 C273.480998,151.337999 272.101998,149.646999 269.029997,149.646999 C265.023997,149.646999 263.866997,152.762999 263.777997,154.542999 L274.059998,154.542999 L274.059998,154.542999 Z M274.059998,154.542999" id="Shape"></path>
                <path d="M283.22699,145.507996 L289.23599,145.507996 L289.23599,148.712996 L289.36899,148.712996 C290.97199,146.130996 293.73099,144.884995 296.40199,144.884995 C303.12299,144.884995 304.813989,148.667995 304.813989,154.364995 L304.813989,168.518995 L298.493989,168.518995 L298.493989,155.521996 C298.493989,151.738996 297.380989,149.869996 294.443989,149.869996 C291.016989,149.869996 289.547989,151.783996 289.547989,156.456995 L289.547989,168.518996 L283.226989,168.518996 L283.226989,145.507996 L283.22699,145.507996 Z M283.22699,145.507996" id="Shape"></path>
                <path d="M316.740997,145.507996 L321.369998,145.507996 L321.369998,149.736996 L316.740997,149.736996 L316.740997,161.131996 C316.740997,163.268996 317.274997,163.801996 319.410997,163.801996 C320.077997,163.801996 320.701997,163.757996 321.368997,163.623996 L321.368997,168.563996 C320.300997,168.741996 318.920997,168.786996 317.674997,168.786996 C313.801997,168.786996 310.419997,167.896996 310.419997,163.311996 L310.419997,149.735996 L306.591997,149.735996 L306.591997,145.506996 L310.419997,145.506996 L310.419997,138.607996 L316.740997,138.607996 L316.740997,145.507996 L316.740997,145.507996 Z M316.740997,145.507996" id="Shape"></path>
                <path d="M323.683014,136.738998 L330.003014,136.738998 L330.003014,168.518999 L323.683014,168.518999 L323.683014,136.738998 L323.683014,136.738998 Z M323.683014,136.738998" id="Shape"></path>
                <path d="M345.447998,171.412994 C344.067998,175.107994 341.886998,176.620995 337.524998,176.620995 C336.233998,176.620995 334.942998,176.531995 333.652998,176.397995 L333.652998,171.189994 C334.854998,171.278994 336.100998,171.456994 337.346998,171.412994 C339.527998,171.189994 340.239998,168.919994 339.527998,167.095994 L331.426998,145.508995 L338.192998,145.508995 L343.400998,161.265995 L343.489998,161.265995 L348.519999,145.508995 L355.062999,145.508995 L345.447998,171.412994 L345.447998,171.412994 Z M345.447998,171.412994" id="Shape"></path>
                <path d="M378.962006,144.884995 C386.217006,144.884995 390.891006,149.691995 390.891006,157.035995 C390.891006,164.334994 386.217006,169.141994 378.962006,169.141994 C371.751006,169.141994 367.078006,164.334994 367.078006,157.035995 C367.078003,149.692001 371.751007,144.884995 378.962006,144.884995 L378.962006,144.884995 Z M378.962006,164.380005 C383.279006,164.380005 384.570005,160.686005 384.570005,157.036005 C384.570005,153.342005 383.279005,149.647005 378.962006,149.647005 C374.689006,149.647005 373.398005,153.341005 373.398005,157.036005 C373.39801,160.686005 374.688995,164.380005 378.962006,164.380005 L378.962006,164.380005 Z M378.962006,164.380005" id="Shape"></path>
                <path d="M393.203003,145.507996 L399.212003,145.507996 L399.212003,149.780995 L399.301003,149.780995 C400.458003,146.887995 403.574003,144.884995 406.645003,144.884995 C407.090003,144.884995 407.624003,144.973995 408.024003,145.107995 L408.024003,150.982995 C407.445003,150.849995 406.511003,150.760995 405.754003,150.760995 C401.125002,150.760995 399.523003,154.098996 399.523003,158.149995 L399.523003,168.520996 L393.202003,168.520996 L393.202003,145.507996 L393.203003,145.507996 Z M393.203003,145.507996" id="Shape"></path>
                <path d="M431.747009,167.050995 C431.747009,170.833995 430.412009,177.242995 419.818009,177.242995 C415.278009,177.242995 409.982009,175.106995 409.67001,169.854995 L415.94601,169.854995 C416.52501,172.213995 418.43801,173.015995 420.66401,173.015995 C424.18101,173.015995 425.78301,170.611995 425.738009,167.317995 L425.738009,164.290995 L425.649009,164.290995 C424.269009,166.694995 421.50901,167.851995 418.750009,167.851995 C411.851009,167.851995 408.914009,162.599996 408.914009,156.278996 C408.914009,150.314995 412.341009,144.883995 418.795008,144.883995 C421.821008,144.883995 424.136008,145.907995 425.649008,148.577995 L425.738008,148.577995 L425.738008,145.506995 L431.747008,145.506995 L431.747008,167.050995 L431.747009,167.050995 Z M425.738007,156.725006 C425.738007,152.986006 424.447007,149.648006 420.352006,149.648006 C416.791006,149.648006 415.233006,152.764006 415.233006,156.191006 C415.233006,159.484006 416.479007,163.090006 420.352006,163.090006 C423.958008,163.089005 425.738007,160.018005 425.738007,156.725006 L425.738007,156.725006 Z M425.738007,156.725006" id="Shape"></path>
                <path d="M434.772003,152.585007 C435.128003,146.665007 440.424003,144.885007 445.587003,144.885007 C450.172003,144.885007 455.691003,145.909007 455.691003,151.428007 L455.691003,163.401007 C455.691003,165.493007 455.914003,167.585007 456.492003,168.520007 L450.082003,168.520007 C449.859003,167.808007 449.682003,167.051007 449.637003,166.294007 C447.634003,168.386007 444.696003,169.143007 441.892003,169.143007 C437.530003,169.143007 434.059003,166.962007 434.059003,162.244006 C434.059003,157.036006 437.976003,155.790006 441.892003,155.256006 C445.765003,154.677006 449.370003,154.811006 449.370003,152.230006 C449.370003,149.515007 447.500003,149.114007 445.275003,149.114007 C442.872003,149.114007 441.314004,150.093006 441.091003,152.586006 L434.772003,152.586006 L434.772003,152.585007 Z M449.371002,157.257996 C448.303002,158.192996 446.077002,158.236996 444.119002,158.592996 C442.161002,158.993996 440.380002,159.660996 440.380002,161.975996 C440.380002,164.334996 442.205002,164.913996 444.253002,164.913996 C449.193002,164.913996 449.372002,160.996995 449.372002,159.617996 L449.372002,157.257996 L449.371002,157.257996 Z M449.371002,157.257996" id="Shape"></path>
                <path d="M459.695007,145.507996 L465.704007,145.507996 L465.704007,148.712996 L465.837007,148.712996 C467.440007,146.130996 470.199007,144.884995 472.870007,144.884995 C479.591007,144.884995 481.282007,148.667995 481.282007,154.364995 L481.282007,168.518995 L474.962007,168.518995 L474.962007,155.521996 C474.962007,151.738996 473.849007,149.869996 470.912006,149.869996 C467.485006,149.869996 466.016007,151.783996 466.016007,156.456995 L466.016007,168.518996 L459.695006,168.518996 L459.695006,145.507996 L459.695007,145.507996 Z M459.695007,145.507996" id="Shape"></path>
                <path d="M490.806,141.947006 L484.486,141.947006 L484.486,136.739006 L490.806,136.739006 L490.806,141.947006 L490.806,141.947006 Z M484.484985,145.507996 L490.804986,145.507996 L490.804986,168.519995 L484.484985,168.519995 L484.484985,145.507996 L484.484985,145.507996 Z M484.484985,145.507996" id="Shape"></path>
                <path d="M493.476013,163.757004 L505.449013,150.271004 L494.366013,150.271004 L494.366013,145.508004 L513.772013,145.508004 L513.772013,150.271004 L501.799013,163.757004 L514.617013,163.757004 L514.617013,168.520004 L493.475013,168.520004 L493.475013,163.757004 L493.476013,163.757004 Z M493.476013,163.757004" id="Shape"></path>
                <path d="M522.317017,158.548996 C522.495017,162.554996 524.454017,164.379996 527.969017,164.379996 C530.506016,164.379996 532.554017,162.821996 532.954017,161.397996 L538.517017,161.397996 C536.737017,166.827996 532.954017,169.142996 527.746017,169.142996 C520.491017,169.142996 515.996017,164.157995 515.996017,157.036996 C515.996017,150.137995 520.759017,144.885996 527.746017,144.885996 C535.580017,144.885996 539.363017,151.472996 538.919017,158.550996 L522.317017,158.550996 L522.317017,158.548996 Z M532.598022,154.542999 C532.020022,151.337999 530.640023,149.646999 527.569023,149.646999 C523.563023,149.646999 522.406023,152.762999 522.317023,154.542999 L532.598022,154.542999 L532.598022,154.542999 Z M532.598022,154.542999" id="Shape"></path>
                <path d="M558.190979,165.582001 L558.100979,165.582001 C556.631979,168.074001 554.050979,169.143001 551.113979,169.143001 C544.169979,169.143001 540.786979,163.179001 540.786979,156.814 C540.786979,150.627001 544.214979,144.885 550.979979,144.885 C553.694979,144.885 556.365979,146.042 557.833979,148.312001 L557.788979,148.312001 L557.877979,148.312001 L557.877979,136.739001 L564.198979,136.739001 L564.198979,168.519001 L558.18998,168.519001 L558.18998,165.582001 L558.190979,165.582001 Z M552.671021,149.647003 C548.531021,149.647003 547.10802,153.208003 547.10802,156.991003 C547.10802,160.596003 548.75402,164.379003 552.671021,164.379003 C556.855021,164.379003 558.10102,160.730003 558.10102,156.946003 C558.101013,153.207993 556.765991,149.647003 552.671021,149.647003 L552.671021,149.647003 Z M552.671021,149.647003" id="Shape"></path>
                <path d="M587.252014,142.615005 L577.728014,142.615005 L577.728014,136.740005 L603.766014,136.740005 L603.766014,142.615005 L594.241014,142.615005 L594.241014,168.520006 L587.253015,168.520006 L587.253015,142.615005 L587.252014,142.615005 Z M587.252014,142.615005" id="Shape"></path>
                <path d="M606.52301,136.738998 L630.292009,136.738998 L630.292009,142.613998 L613.512009,142.613998 L613.512009,149.423998 L628.912008,149.423998 L628.912008,154.853998 L613.512009,154.853998 L613.512009,162.642998 L630.648008,162.642998 L630.648008,168.517998 L606.524008,168.517998 L606.524008,136.738998 L606.52301,136.738998 Z M606.52301,136.738998" id="Shape"></path>
                <path d="M633.583008,136.738998 L647.292007,136.738998 C655.526008,136.738998 661.713007,141.902998 661.713007,152.450998 C661.713007,161.663999 656.995007,168.518999 647.292007,168.518999 L633.583008,168.518999 L633.583008,136.738998 L633.583008,136.738998 Z M640.572021,162.643997 L646.803021,162.643997 C650.853022,162.643997 654.726021,160.151997 654.726021,153.118998 C654.726021,146.708998 652.500021,142.614998 645.556021,142.614998 L640.572021,142.614998 L640.572021,162.643997 L640.572021,162.643997 Z M640.572021,162.643997" id="Shape"></path>
                <path d="M681.695984,158.548996 C681.873984,162.554996 683.832984,164.379996 687.347984,164.379996 C689.884984,164.379996 691.932984,162.821996 692.332984,161.397996 L697.895984,161.397996 C696.115984,166.827996 692.332984,169.142996 687.124984,169.142996 C679.869984,169.142996 675.374984,164.157995 675.374984,157.036996 C675.374984,150.137995 680.137984,144.885996 687.124984,144.885996 C694.958984,144.885996 698.741984,151.472996 698.297985,158.550996 L681.695984,158.550996 L681.695984,158.548996 Z M691.97699,154.542999 C691.39899,151.337999 690.01899,149.646999 686.94799,149.646999 C682.94199,149.646999 681.78499,152.762999 681.69599,154.542999 L691.97699,154.542999 L691.97699,154.542999 Z M691.97699,154.542999" id="Shape"></path>
                <path d="M712.984985,168.520004 L705.951985,168.520004 L698.073986,145.508005 L704.705986,145.508005 L709.557986,161.220005 L709.646986,161.220005 L714.498986,145.508005 L720.774986,145.508005 L712.984985,168.520004 L712.984985,168.520004 Z M712.984985,168.520004" id="Shape"></path>
                <path d="M726.825989,158.548996 C727.003989,162.554996 728.962989,164.379996 732.477989,164.379996 C735.014989,164.379996 737.062989,162.821996 737.462989,161.397996 L743.025989,161.397996 C741.245989,166.827996 737.462989,169.142996 732.254989,169.142996 C724.999989,169.142996 720.504989,164.157995 720.504989,157.036996 C720.504989,150.137995 725.267989,144.885996 732.254989,144.885996 C740.088989,144.885996 743.871989,151.472996 743.426989,158.550996 L726.825989,158.550996 L726.825989,158.548996 Z M737.106995,154.542999 C736.528995,151.337999 735.148995,149.646999 732.077995,149.646999 C728.071995,149.646999 726.914995,152.762999 726.825995,154.542999 L737.106995,154.542999 L737.106995,154.542999 Z M737.106995,154.542999" id="Shape"></path>
                <path d="M746.275024,145.507996 L752.284024,145.507996 L752.284024,148.712996 L752.418024,148.712996 C754.021024,146.130996 756.780024,144.884995 759.450024,144.884995 C766.172024,144.884995 767.863024,148.667995 767.863024,154.364995 L767.863024,168.518995 L761.543024,168.518995 L761.543024,155.521996 C761.543024,151.738996 760.430024,149.869996 757.492024,149.869996 C754.064024,149.869996 752.596024,151.783996 752.596024,156.456995 L752.596024,168.518996 L746.276024,168.518996 L746.276024,145.507996 L746.275024,145.507996 Z M746.275024,145.507996" id="Shape"></path>
                <path d="M779.789001,145.507996 L784.418002,145.507996 L784.418002,149.736996 L779.789001,149.736996 L779.789001,161.131996 C779.789001,163.268996 780.323001,163.801996 782.460001,163.801996 C783.128001,163.801996 783.751001,163.757996 784.418001,163.623996 L784.418001,168.563996 C783.351001,168.741996 781.971001,168.786996 780.724001,168.786996 C776.852001,168.786996 773.469001,167.896996 773.469001,163.311996 L773.469001,149.735996 L769.641001,149.735996 L769.641001,145.506996 L773.469001,145.506996 L773.469001,138.607996 L779.789001,138.607996 L779.789001,145.507996 L779.789001,145.507996 Z M779.789001,145.507996" id="Shape"></path>
            </g>
            <g id="tedx">
                <g id="Group">
                    <path d="M31.5,31.5979996 L1.84600019,31.5979996 L1.84600019,4.47700024 L93.724998,4.47700024 L93.724998,31.5980005 L64.0820007,31.5980005 L64.0820007,110.293 L31.5,110.293 L31.5,31.5979996 L31.5,31.5979996 Z M31.5,31.5979996" id="Shape" fill="#FF2B06"></path>
                    <path d="M98.7890015,4.47700024 L187.981003,4.47700024 L187.981003,31.5980005 L131.391003,31.5980005 L131.391003,44.7840004 L187.981003,44.7840004 L187.981003,69.9869995 L131.391003,69.9869995 L131.391003,83.1739998 L187.996002,83.1739998 L187.996002,110.294001 L98.7890015,110.294001 L98.7890015,4.47700024 L98.7890015,4.47700024 Z M98.7890015,4.47700024" id="Shape" fill="#FF2B06"></path>
                    <path d="M193.468002,4.47700024 L246.968002,4.47700024 C282.234001,4.47700024 294.697002,30.5609999 294.697002,57.2299986 C294.697002,89.6959982 277.506002,110.292998 240.601002,110.292998 L193.467003,110.292998 L193.467003,4.47700024 L193.468002,4.47700024 Z M226.067993,83.1729965 L238.817993,83.1729965 C259.126993,83.1729965 262.095993,66.7169971 262.095993,56.7769966 C262.095993,50.1209965 260.009993,31.5979958 236.443993,31.5979958 L226.067992,31.5979958 L226.067992,83.1729965 L226.067993,83.1729965 Z M226.067993,83.1729965" id="Shape" fill="#FF2B06"></path>
                </g>
                <path d="M341.542999,69.5159988 L331.598,53.0239983 L321.899994,69.5159988 L298.012995,69.5159988 L320.690002,36.1699982 L298.854004,4.27299976 L322.749004,4.27299976 L331.598004,20.04 L340.701004,4.27299976 L364.589005,4.27299976 L342.76001,36.1699982 L365.43701,69.5159988 L341.542999,69.5159988 L341.542999,69.5159988 Z M341.542999,69.5159988" id="Shape" fill="#FF2B06"></path>
            </g>
        </g>
        <path d="M44.0390625,29.5" id="Path 55" stroke="rgb(132,132,132)" stroke-width="1"></path>
        <path d="M483.791016,110 L483.791016,4.91992188 L496.623047,4.91992188 L496.623047,43.9863281 C499.664729,40.1366995 502.397449,37.4277422 504.821289,35.859375 C508.956075,33.1503771 514.112599,31.7958984 520.291016,31.7958984 C531.364639,31.7958984 538.873678,35.6692321 542.818359,43.4160156 C544.957042,47.6458545 546.026367,53.5152619 546.026367,61.0244141 L546.026367,110 L532.837891,110 L532.837891,61.8798828 C532.837891,56.2717819 532.125007,52.1608204 530.699219,49.546875 C528.370431,45.3645624 523.998079,43.2734375 517.582031,43.2734375 C512.259088,43.2734375 507.435243,45.1031718 503.110352,48.7626953 C498.78546,52.4222188 496.623047,59.3371887 496.623047,69.5078125 L496.623047,110 Z M384.057617,76.2089844 L397.388672,76.2089844 C397.721356,82.1497693 399.12336,86.9736143 401.594727,90.6806641 C406.299828,97.6195008 414.59304,101.088867 426.474609,101.088867 C431.797553,101.088867 436.64516,100.328458 441.017578,98.8076172 C449.477256,95.8609879 453.707031,90.58565 453.707031,82.9814453 C453.707031,77.2782918 451.924823,73.2148559 448.360352,70.7910156 C444.748354,68.4147017 439.092812,66.3473395 431.393555,64.5888672 L417.207031,61.3808594 C407.939407,59.2897031 401.380879,56.9847131 397.53125,54.4658203 C390.877571,50.0934026 387.550781,43.5586372 387.550781,34.8613281 C387.550781,25.4511248 390.806283,17.7282203 397.317383,11.6923828 C403.828483,5.65654534 413.048443,2.63867188 424.977539,2.63867188 C435.95611,2.63867188 445.283002,5.2882222 452.958496,10.5874023 C460.63399,15.8865825 464.47168,24.3580147 464.47168,36.0019531 L451.140625,36.0019531 C450.427731,30.3938522 448.906913,26.0927884 446.578125,23.0986328 C442.253234,17.6331107 434.910534,14.9003906 424.549805,14.9003906 C416.18518,14.9003906 410.173195,16.6588366 406.513672,20.1757812 C402.854148,23.6927259 401.024414,27.7799246 401.024414,32.4375 C401.024414,37.5703382 403.163065,41.3248579 407.44043,43.7011719 C410.24448,45.2220128 416.589143,47.1230355 426.474609,49.4042969 L441.160156,52.7548828 C448.241572,54.3707763 453.707012,56.5807151 457.556641,59.3847656 C464.21032,64.2799724 467.537109,71.3850446 467.537109,80.7001953 C467.537109,92.2966075 463.319215,100.589819 454.883301,105.580078 C446.447386,110.570337 436.645238,113.06543 425.476562,113.06543 C412.454362,113.06543 402.260128,109.73864 394.893555,103.084961 C387.526981,96.4788081 383.915038,87.5202388 384.057617,76.2089844 Z M612.539062,35.7524414 C617.624374,38.2950973 621.497708,41.5862428 624.15918,45.6259766 C626.725599,49.4756052 628.436519,53.9667712 629.291992,59.0996094 C630.052413,62.616554 630.432617,68.2245709 630.432617,75.9238281 L574.470703,75.9238281 C574.708335,83.6706117 576.538069,89.8845795 579.959961,94.565918 C583.381853,99.2472565 588.680954,101.587891 595.857422,101.587891 C602.558627,101.587891 607.905253,99.3779518 611.897461,94.9580078 C614.178722,92.3915887 615.794592,89.4212408 616.745117,86.046875 L629.363281,86.046875 C629.030597,88.8509255 627.925628,91.9757315 626.04834,95.4213867 C624.171052,98.867042 622.068045,101.682932 619.739258,103.869141 C615.842103,107.671243 611.018258,110.237624 605.267578,111.568359 C602.17837,112.32878 598.685241,112.708984 594.788086,112.708984 C585.28283,112.708984 577.227247,109.251499 570.621094,102.336426 C564.014941,95.4213521 560.711914,85.738018 560.711914,73.2861328 C560.711914,61.0243528 564.038704,51.0677466 570.692383,43.4160156 C577.346062,35.7642847 586.043241,31.9384766 596.78418,31.9384766 C602.202176,31.9384766 607.453751,33.2097855 612.539062,35.7524414 Z M574.827148,65.7294922 L617.244141,65.7294922 C616.721352,60.1689175 615.50945,55.7252771 613.608398,52.3984375 C610.091454,46.2200212 604.222046,43.1308594 596,43.1308594 C590.106741,43.1308594 585.164082,45.2576285 581.171875,49.5112305 C577.179668,53.7648325 575.06478,59.1708656 574.827148,65.7294922 Z M652.175781,10.3378906 C655.169937,5.96547293 660.944293,3.77929688 669.499023,3.77929688 C670.30697,3.77929688 671.138668,3.80305966 671.994141,3.85058594 C672.849614,3.89811222 673.823888,3.96940057 674.916992,4.06445312 L674.916992,15.7558594 C673.586256,15.6608068 672.623864,15.6013999 672.029785,15.5776367 C671.435707,15.5538736 670.877281,15.5419922 670.354492,15.5419922 C666.457337,15.5419922 664.128585,16.5519105 663.368164,18.5717773 C662.607744,20.5916442 662.227539,25.7362868 662.227539,34.0058594 L674.916992,34.0058594 L674.916992,44.1289062 L662.084961,44.1289062 L662.084961,110 L649.395508,110 L649.395508,44.1289062 L638.773438,44.1289062 L638.773438,34.0058594 L649.395508,34.0058594 L649.395508,22.0292969 C649.585613,16.7063536 650.512361,12.8092571 652.175781,10.3378906 Z M692.739258,10.3378906 C695.733413,5.96547293 701.50777,3.77929688 710.0625,3.77929688 C710.870447,3.77929688 711.702144,3.80305966 712.557617,3.85058594 C713.41309,3.89811222 714.387364,3.96940057 715.480469,4.06445312 L715.480469,15.7558594 C714.149733,15.6608068 713.18734,15.6013999 712.593262,15.5776367 C711.999183,15.5538736 711.440758,15.5419922 710.917969,15.5419922 C707.020814,15.5419922 704.692061,16.5519105 703.931641,18.5717773 C703.17122,20.5916442 702.791016,25.7362868 702.791016,34.0058594 L715.480469,34.0058594 L715.480469,44.1289062 L702.648438,44.1289062 L702.648438,110 L689.958984,110 L689.958984,44.1289062 L679.336914,44.1289062 L679.336914,34.0058594 L689.958984,34.0058594 L689.958984,22.0292969 C690.149089,16.7063536 691.075838,12.8092571 692.739258,10.3378906 Z M727.813477,19.8193359 L727.813477,5.27636719 L740.645508,5.27636719 L740.645508,19.8193359 Z M727.813477,34.0058594 L740.645508,34.0058594 L740.645508,110 L727.813477,110 Z M807.300781,35.7524414 C812.386093,38.2950973 816.259427,41.5862428 818.920898,45.6259766 C821.487318,49.4756052 823.198238,53.9667712 824.053711,59.0996094 C824.814131,62.616554 825.194336,68.2245709 825.194336,75.9238281 L769.232422,75.9238281 C769.470053,83.6706117 771.299788,89.8845795 774.72168,94.565918 C778.143572,99.2472565 783.442672,101.587891 790.619141,101.587891 C797.320346,101.587891 802.666972,99.3779518 806.65918,94.9580078 C808.940441,92.3915887 810.55631,89.4212408 811.506836,86.046875 L824.125,86.046875 C823.792316,88.8509255 822.687347,91.9757315 820.810059,95.4213867 C818.932771,98.867042 816.829764,101.682932 814.500977,103.869141 C810.603822,107.671243 805.779977,110.237624 800.029297,111.568359 C796.940089,112.32878 793.44696,112.708984 789.549805,112.708984 C780.044549,112.708984 771.988965,109.251499 765.382812,102.336426 C758.77666,95.4213521 755.473633,85.738018 755.473633,73.2861328 C755.473633,61.0243528 758.800422,51.0677466 765.454102,43.4160156 C772.107781,35.7642847 780.804959,31.9384766 791.545898,31.9384766 C796.963894,31.9384766 802.215469,33.2097855 807.300781,35.7524414 Z M769.588867,65.7294922 L812.005859,65.7294922 C811.48307,60.1689175 810.271168,55.7252771 808.370117,52.3984375 C804.853173,46.2200212 798.983765,43.1308594 790.761719,43.1308594 C784.86846,43.1308594 779.925801,45.2576285 775.933594,49.5112305 C771.941386,53.7648325 769.826499,59.1708656 769.588867,65.7294922 Z M841.305664,5.27636719 L854.137695,5.27636719 L854.137695,110 L841.305664,110 Z M886.716797,93.2470703 C890.186215,98.7601187 895.746707,101.516602 903.398438,101.516602 C909.339222,101.516602 914.222474,98.9621024 918.04834,93.8530273 C921.874205,88.7439523 923.787109,81.4131337 923.787109,71.8603516 C923.787109,62.2125169 921.814798,55.0718005 917.870117,50.4379883 C913.925436,45.804176 909.054065,43.4873047 903.255859,43.4873047 C896.792285,43.4873047 891.552592,45.9586341 887.536621,50.9013672 C883.52065,55.8441002 881.512695,63.1155119 881.512695,72.7158203 C881.512695,80.8903404 883.247378,87.7340219 886.716797,93.2470703 Z M915.517578,36.0019531 C917.79884,37.4277415 920.388983,39.9228337 923.288086,43.4873047 L923.288086,4.91992188 L935.621094,4.91992188 L935.621094,110 L924.072266,110 L924.072266,99.3779297 C921.07811,104.083031 917.537455,107.481109 913.450195,109.572266 C909.362935,111.663422 904.681667,112.708984 899.40625,112.708984 C890.899046,112.708984 883.532583,109.132686 877.306641,101.97998 C871.080698,94.8272754 867.967773,85.3102808 867.967773,73.4287109 C867.967773,62.3075616 870.807426,52.671753 876.486816,44.5209961 C882.166207,36.3702392 890.281197,32.2949219 900.832031,32.2949219 C906.677764,32.2949219 911.572897,33.5305866 915.517578,36.0019531 Z M915.517578,36.0019531" id="Sheffield copy" fill="#000000"></path>
    </g>
</svg>