<svg xmlns="http://www.w3.org/2000/svg" xmlns:xlink="http://www.w3.org/1999/xlink" xmlns:sketch="http://www.bohemiancoding.com/sketch/ns" width="938px" height="179px" viewBox="0 0 938 179" version="1.1"><title>logo</title><description>Created with Sketch (http://www.bohemiancoding.com/sketch)</description><defs/><g fill="#D8D8D8" fill-rule="evenodd"><g fill="#000000"><g><path d="M12.4500008 156.4 L4.88300085 145.5 L12.0940008 145.5 L16.144001 151.5 L20.150001 145.5 L27.138001 145.5 L19.5710011 156.3 L28.0720015 168.5 L20.8620014 168.5 L16.0550013 161.3 L11.2480011 168.5 L4.17099953 168.5 L12.4500008 156.4 L12.4500008 156.4 Z M12.4500008 156.4" fill="#FF2B06"/><path d="M58.026001 154.9 L35.5480003 154.9 L35.5480003 150.1 L58.026001 150.1 L58.026001 154.9 L58.026001 154.9 Z M58.026001 164.4 L35.5480003 164.4 L35.5480003 159.7 L58.026001 159.7 L58.026001 164.4 L58.026001 164.4 Z M58.026001 164.4"/><path d="M75.2490005 141.9 L68.9290004 141.9 L68.9290004 136.7 L75.2490005 136.7 L75.2490005 141.9 L75.2490005 141.9 Z M68.9290009 145.5 L75.249001 145.5 L75.249001 168.5 L68.9290009 168.5 L68.9290009 145.5 L68.9290009 145.5 Z M68.9290009 145.5"/><path d="M79.3430023 145.5 L85.3520021 145.5 L85.3520021 148.7 L85.4850021 148.7 C87.0880022 146.1 89.8 144.9 92.5 144.9 C99.2390023 144.9 100.9 148.7 100.9 154.4 L100.930002 168.5 L94.6100017 168.5 L94.6100017 155.5 C94.6100017 151.7 93.5 149.9 90.6 149.9 C87.1330014 149.9 85.7 151.8 85.7 156.5 L85.6640016 168.5 L79.3430015 168.5 L79.3430015 145.5 L79.3430023 145.5 Z M79.3430023 145.5"/><path d="M121.269997 165.6 L121.180997 165.6 C119.711997 168.1 117.1 169.1 114.2 169.1 C107.249997 169.1 103.9 163.2 103.9 156.8 C103.866997 150.6 107.3 144.9 114.1 144.9 C116.774996 144.9 119.4 146 120.9 148.3 L120.869996 148.3 L120.958996 148.3 L120.958996 136.7 L127.278997 136.7 L127.278997 168.5 L121.269997 168.5 L121.269997 165.6 L121.269997 165.6 Z M115.75 149.6 C111.61 149.6 110.2 153.2 110.2 157 C110.186 160.6 111.8 164.4 115.8 164.4 C119.934 164.4 121.2 160.7 121.2 156.9 C121.181 153.2 119.8 149.6 115.8 149.6 L115.75 149.6 Z M115.75 149.6"/><path d="M136.356003 158.5 C136.534003 162.6 138.5 164.4 142 164.4 C144.546003 164.4 146.6 162.8 147 161.4 L152.558003 161.4 C150.777003 166.8 147 169.1 141.8 169.1 C134.532003 169.1 130 164.2 130 157 C130.037003 150.1 134.8 144.9 141.8 144.9 C149.620003 144.9 153.4 151.5 153 158.6 L136.356003 158.6 L136.356003 158.5 Z M146.638 154.5 C146.059 151.3 144.7 149.6 141.6 149.6 C137.602 149.6 136.4 152.8 136.4 154.5 L146.638 154.5 L146.638 154.5 Z M146.638 154.5"/><path d="M155.804993 145.5 L161.813993 145.5 L161.813993 148.4 L161.902993 148.4 C163.415993 146 165.9 144.9 168.8 144.9 C175.966993 144.9 179.2 150.7 179.2 157.3 C179.216993 163.4 175.8 169.1 169.1 169.1 C166.352993 169.1 163.7 167.9 162.2 165.7 L162.124992 165.7 L162.124992 176.6 L155.803992 176.6 L155.803992 145.5 L155.804993 145.5 Z M172.897003 157.1 C172.897003 153.4 171.4 149.6 167.4 149.6 C163.239003 149.6 161.9 153.3 161.9 157.1 C161.903003 160.8 163.3 164.4 167.4 164.4 C171.561996 164.4 172.9 160.8 172.9 157.1 L172.897003 157.1 Z M172.897003 157.1"/><path d="M187.315994 158.5 C187.493994 162.6 189.5 164.4 193 164.4 C195.505994 164.4 197.6 162.8 198 161.4 L203.517994 161.4 C201.736994 166.8 198 169.1 192.7 169.1 C185.491994 169.1 181 164.2 181 157 C180.996994 150.1 185.8 144.9 192.7 144.9 C200.579995 144.9 204.4 151.5 203.9 158.6 L187.315994 158.6 L187.315994 158.5 Z M197.598007 154.5 C197.019007 151.3 195.6 149.6 192.6 149.6 C188.562007 149.6 187.4 152.8 187.3 154.5 L197.598007 154.5 L197.598007 154.5 Z M197.598007 154.5"/><path d="M206.764999 145.5 L212.773999 145.5 L212.773999 148.7 L212.906999 148.7 C214.509999 146.1 217.3 144.9 219.9 144.9 C226.660999 144.9 228.4 148.7 228.4 154.4 L228.351999 168.5 L222.031999 168.5 L222.031999 155.5 C222.031999 151.7 220.9 149.9 218 149.9 C214.554999 149.9 213.1 151.8 213.1 156.5 L213.085999 168.5 L206.764999 168.5 L206.764999 145.5 L206.764999 145.5 Z M206.764999 145.5"/><path d="M248.690994 165.6 L248.601994 165.6 C247.132994 168.1 244.6 169.1 241.6 169.1 C234.670995 169.1 231.3 163.2 231.3 156.8 C231.287994 150.6 234.7 144.9 241.5 144.9 C244.195994 144.9 246.9 146 248.3 148.3 L248.290994 148.3 L248.379994 148.3 L248.379994 136.7 L254.699994 136.7 L254.699994 168.5 L248.690994 168.5 L248.690994 165.6 L248.690994 165.6 Z M243.171997 149.6 C239.031997 149.6 237.6 153.2 237.6 157 C237.607997 160.6 239.3 164.4 243.2 164.4 C247.355997 164.4 248.6 160.7 248.6 156.9 C248.602997 153.2 247.3 149.6 243.2 149.6 L243.171997 149.6 Z M243.171997 149.6"/><path d="M263.778015 158.5 C263.956015 162.6 265.9 164.4 269.4 164.4 C271.968015 164.4 274 162.8 274.4 161.4 L279.980015 161.4 C278.199015 166.8 274.4 169.1 269.2 169.1 C261.954015 169.1 257.5 164.2 257.5 157 C257.459015 150.1 262.2 144.9 269.2 144.9 C277.042016 144.9 280.8 151.5 280.4 158.6 L263.778015 158.6 L263.778015 158.5 Z M274.059998 154.5 C273.480998 151.3 272.1 149.6 269 149.6 C265.023997 149.6 263.9 152.8 263.8 154.5 L274.059998 154.5 L274.059998 154.5 Z M274.059998 154.5"/><path d="M283.22699 145.5 L289.23599 145.5 L289.23599 148.7 L289.36899 148.7 C290.97199 146.1 293.7 144.9 296.4 144.9 C303.12299 144.9 304.8 148.7 304.8 154.4 L304.813989 168.5 L298.493989 168.5 L298.493989 155.5 C298.493989 151.7 297.4 149.9 294.4 149.9 C291.016989 149.9 289.5 151.8 289.5 156.5 L289.547989 168.5 L283.226989 168.5 L283.226989 145.5 L283.22699 145.5 Z M283.22699 145.5"/><path d="M316.740997 145.5 L321.369998 145.5 L321.369998 149.7 L316.740997 149.7 L316.740997 161.1 C316.740997 163.3 317.3 163.8 319.4 163.8 C320.077997 163.8 320.7 163.8 321.4 163.6 L321.368997 168.6 C320.300997 168.7 318.9 168.8 317.7 168.8 C313.801997 168.8 310.4 167.9 310.4 163.3 L310.419997 149.7 L306.591997 149.7 L306.591997 145.5 L310.419997 145.5 L310.419997 138.6 L316.740997 138.6 L316.740997 145.5 L316.740997 145.5 Z M316.740997 145.5"/><path d="M323.683014 136.7 L330.003014 136.7 L330.003014 168.5 L323.683014 168.5 L323.683014 136.7 L323.683014 136.7 Z M323.683014 136.7"/><path d="M345.447998 171.4 C344.067998 175.1 341.9 176.6 337.5 176.6 C336.233998 176.6 334.9 176.5 333.7 176.4 L333.652998 171.2 C334.854998 171.3 336.1 171.5 337.3 171.4 C339.527998 171.2 340.2 168.9 339.5 167.1 L331.426998 145.5 L338.192998 145.5 L343.400998 161.3 L343.489998 161.3 L348.519999 145.5 L355.062999 145.5 L345.447998 171.4 L345.447998 171.4 Z M345.447998 171.4"/><path d="M378.962006 144.9 C386.217006 144.9 390.9 149.7 390.9 157 C390.891006 164.3 386.2 169.1 379 169.1 C371.751006 169.1 367.1 164.3 367.1 157 C367.078003 149.7 371.8 144.9 379 144.9 L378.962006 144.9 Z M378.962006 164.4 C383.279006 164.4 384.6 160.7 384.6 157 C384.570005 153.3 383.3 149.6 379 149.6 C374.689006 149.6 373.4 153.3 373.4 157 C373.39801 160.7 374.7 164.4 379 164.4 L378.962006 164.4 Z M378.962006 164.4"/><path d="M393.203003 145.5 L399.212003 145.5 L399.212003 149.8 L399.301003 149.8 C400.458003 146.9 403.6 144.9 406.6 144.9 C407.090003 144.9 407.6 145 408 145.1 L408.024003 151 C407.445003 150.8 406.5 150.8 405.8 150.8 C401.125002 150.8 399.5 154.1 399.5 158.1 L399.523003 168.5 L393.202003 168.5 L393.202003 145.5 L393.203003 145.5 Z M393.203003 145.5"/><path d="M431.747009 167.1 C431.747009 170.8 430.4 177.2 419.8 177.2 C415.278009 177.2 410 175.1 409.7 169.9 L415.94601 169.9 C416.52501 172.2 418.4 173 420.7 173 C424.18101 173 425.8 170.6 425.7 167.3 L425.738009 164.3 L425.649009 164.3 C424.269009 166.7 421.5 167.9 418.8 167.9 C411.851009 167.9 408.9 162.6 408.9 156.3 C408.914009 150.3 412.3 144.9 418.8 144.9 C421.821008 144.9 424.1 145.9 425.6 148.6 L425.738008 148.6 L425.738008 145.5 L431.747008 145.5 L431.747008 167.1 L431.747009 167.1 Z M425.738007 156.7 C425.738007 153 424.4 149.6 420.4 149.6 C416.791006 149.6 415.2 152.8 415.2 156.2 C415.233006 159.5 416.5 163.1 420.4 163.1 C423.958008 163.1 425.7 160 425.7 156.7 L425.738007 156.7 Z M425.738007 156.7"/><path d="M434.772003 152.6 C435.128003 146.7 440.4 144.9 445.6 144.9 C450.172003 144.9 455.7 145.9 455.7 151.4 L455.691003 163.4 C455.691003 165.5 455.9 167.6 456.5 168.5 L450.082003 168.5 C449.859003 167.8 449.7 167.1 449.6 166.3 C447.634003 168.4 444.7 169.1 441.9 169.1 C437.530003 169.1 434.1 167 434.1 162.2 C434.059003 157 438 155.8 441.9 155.3 C445.765003 154.7 449.4 154.8 449.4 152.2 C449.370003 149.5 447.5 149.1 445.3 149.1 C442.872003 149.1 441.3 150.1 441.1 152.6 L434.772003 152.6 L434.772003 152.6 Z M449.371002 157.3 C448.303002 158.2 446.1 158.2 444.1 158.6 C442.161002 159 440.4 159.7 440.4 162 C440.380002 164.3 442.2 164.9 444.3 164.9 C449.193002 164.9 449.4 161 449.4 159.6 L449.372002 157.3 L449.371002 157.3 Z M449.371002 157.3"/><path d="M459.695007 145.5 L465.704007 145.5 L465.704007 148.7 L465.837007 148.7 C467.440007 146.1 470.2 144.9 472.9 144.9 C479.591007 144.9 481.3 148.7 481.3 154.4 L481.282007 168.5 L474.962007 168.5 L474.962007 155.5 C474.962007 151.7 473.8 149.9 470.9 149.9 C467.485006 149.9 466 151.8 466 156.5 L466.016007 168.5 L459.695006 168.5 L459.695006 145.5 L459.695007 145.5 Z M459.695007 145.5"/><path d="M490.806 141.9 L484.486 141.9 L484.486 136.7 L490.806 136.7 L490.806 141.9 L490.806 141.9 Z M484.484985 145.5 L490.804986 145.5 L490.804986 168.5 L484.484985 168.5 L484.484985 145.5 L484.484985 145.5 Z M484.484985 145.5"/><path d="M493.476013 163.8 L505.449013 150.3 L494.366013 150.3 L494.366013 145.5 L513.772013 145.5 L513.772013 150.3 L501.799013 163.8 L514.617013 163.8 L514.617013 168.5 L493.475013 168.5 L493.475013 163.8 L493.476013 163.8 Z M493.476013 163.8"/><path d="M522.317017 158.5 C522.495017 162.6 524.5 164.4 528 164.4 C530.506016 164.4 532.6 162.8 533 161.4 L538.517017 161.4 C536.737017 166.8 533 169.1 527.7 169.1 C520.491017 169.1 516 164.2 516 157 C515.996017 150.1 520.8 144.9 527.7 144.9 C535.580017 144.9 539.4 151.5 538.9 158.6 L522.317017 158.6 L522.317017 158.5 Z M532.598022 154.5 C532.020022 151.3 530.6 149.6 527.6 149.6 C523.563023 149.6 522.4 152.8 522.3 154.5 L532.598022 154.5 L532.598022 154.5 Z M532.598022 154.5"/><path d="M558.190979 165.6 L558.100979 165.6 C556.631979 168.1 554.1 169.1 551.1 169.1 C544.169979 169.1 540.8 163.2 540.8 156.8 C540.786979 150.6 544.2 144.9 551 144.9 C553.694979 144.9 556.4 146 557.8 148.3 L557.788979 148.3 L557.877979 148.3 L557.877979 136.7 L564.198979 136.7 L564.198979 168.5 L558.18998 168.5 L558.18998 165.6 L558.190979 165.6 Z M552.671021 149.6 C548.531021 149.6 547.1 153.2 547.1 157 C547.10802 160.6 548.8 164.4 552.7 164.4 C556.855021 164.4 558.1 160.7 558.1 156.9 C558.101013 153.2 556.8 149.6 552.7 149.6 L552.671021 149.6 Z M552.671021 149.6"/><path d="M587.252014 142.6 L577.728014 142.6 L577.728014 136.7 L603.766014 136.7 L603.766014 142.6 L594.241014 142.6 L594.241014 168.5 L587.253015 168.5 L587.253015 142.6 L587.252014 142.6 Z M587.252014 142.6"/><path d="M606.52301 136.7 L630.292009 136.7 L630.292009 142.6 L613.512009 142.6 L613.512009 149.4 L628.912008 149.4 L628.912008 154.9 L613.512009 154.9 L613.512009 162.6 L630.648008 162.6 L630.648008 168.5 L606.524008 168.5 L606.524008 136.7 L606.52301 136.7 Z M606.52301 136.7"/><path d="M633.583008 136.7 L647.292007 136.7 C655.526008 136.7 661.7 141.9 661.7 152.5 C661.713007 161.7 657 168.5 647.3 168.5 L633.583008 168.5 L633.583008 136.7 L633.583008 136.7 Z M640.572021 162.6 L646.803021 162.6 C650.853022 162.6 654.7 160.2 654.7 153.1 C654.726021 146.7 652.5 142.6 645.6 142.6 L640.572021 142.6 L640.572021 162.6 L640.572021 162.6 Z M640.572021 162.6"/><path d="M681.695984 158.5 C681.873984 162.6 683.8 164.4 687.3 164.4 C689.884984 164.4 691.9 162.8 692.3 161.4 L697.895984 161.4 C696.115984 166.8 692.3 169.1 687.1 169.1 C679.869984 169.1 675.4 164.2 675.4 157 C675.374984 150.1 680.1 144.9 687.1 144.9 C694.958984 144.9 698.7 151.5 698.3 158.6 L681.695984 158.6 L681.695984 158.5 Z M691.97699 154.5 C691.39899 151.3 690 149.6 686.9 149.6 C682.94199 149.6 681.8 152.8 681.7 154.5 L691.97699 154.5 L691.97699 154.5 Z M691.97699 154.5"/><path d="M712.984985 168.5 L705.951985 168.5 L698.073986 145.5 L704.705986 145.5 L709.557986 161.2 L709.646986 161.2 L714.498986 145.5 L720.774986 145.5 L712.984985 168.5 L712.984985 168.5 Z M712.984985 168.5"/><path d="M726.825989 158.5 C727.003989 162.6 729 164.4 732.5 164.4 C735.014989 164.4 737.1 162.8 737.5 161.4 L743.025989 161.4 C741.245989 166.8 737.5 169.1 732.3 169.1 C724.999989 169.1 720.5 164.2 720.5 157 C720.504989 150.1 725.3 144.9 732.3 144.9 C740.088989 144.9 743.9 151.5 743.4 158.6 L726.825989 158.6 L726.825989 158.5 Z M737.106995 154.5 C736.528995 151.3 735.1 149.6 732.1 149.6 C728.071995 149.6 726.9 152.8 726.8 154.5 L737.106995 154.5 L737.106995 154.5 Z M737.106995 154.5"/><path d="M746.275024 145.5 L752.284024 145.5 L752.284024 148.7 L752.418024 148.7 C754.021024 146.1 756.8 144.9 759.5 144.9 C766.172024 144.9 767.9 148.7 767.9 154.4 L767.863024 168.5 L761.543024 168.5 L761.543024 155.5 C761.543024 151.7 760.4 149.9 757.5 149.9 C754.064024 149.9 752.6 151.8 752.6 156.5 L752.596024 168.5 L746.276024 168.5 L746.276024 145.5 L746.275024 145.5 Z M746.275024 145.5"/><path d="M779.789001 145.5 L784.418002 145.5 L784.418002 149.7 L779.789001 149.7 L779.789001 161.1 C779.789001 163.3 780.3 163.8 782.5 163.8 C783.128001 163.8 783.8 163.8 784.4 163.6 L784.418001 168.6 C783.351001 168.7 782 168.8 780.7 168.8 C776.852001 168.8 773.5 167.9 773.5 163.3 L773.469001 149.7 L769.641001 149.7 L769.641001 145.5 L773.469001 145.5 L773.469001 138.6 L779.789001 138.6 L779.789001 145.5 L779.789001 145.5 Z M779.789001 145.5"/></g><g><g><path d="M31.5 31.6 L1.84600019 31.6 L1.84600019 4.5 L93.724998 4.5 L93.724998 31.6 L64.0820007 31.6 L64.0820007 110.3 L31.5 110.3 L31.5 31.6 L31.5 31.6 Z M31.5 31.6" fill="#FF2B06"/><path d="M98.7890015 4.5 L187.981003 4.5 L187.981003 31.6 L131.391003 31.6 L131.391003 44.8 L187.981003 44.8 L187.981003 70 L131.391003 70 L131.391003 83.2 L187.996002 83.2 L187.996002 110.3 L98.7890015 110.3 L98.7890015 4.5 L98.7890015 4.5 Z M98.7890015 4.5" fill="#FF2B06"/><path d="M193.468002 4.5 L246.968002 4.5 C282.234001 4.5 294.7 30.6 294.7 57.2 C294.697002 89.7 277.5 110.3 240.6 110.3 L193.467003 110.3 L193.467003 4.5 L193.468002 4.5 Z M226.067993 83.2 L238.817993 83.2 C259.126993 83.2 262.1 66.7 262.1 56.8 C262.095993 50.1 260 31.6 236.4 31.6 L226.067992 31.6 L226.067992 83.2 L226.067993 83.2 Z M226.067993 83.2" fill="#FF2B06"/></g><path d="M341.542999 69.5 L331.598 53 L321.899994 69.5 L298.012995 69.5 L320.690002 36.2 L298.854004 4.3 L322.749004 4.3 L331.598004 20 L340.701004 4.3 L364.589005 4.3 L342.76001 36.2 L365.43701 69.5 L341.542999 69.5 L341.542999 69.5 Z M341.542999 69.5" fill="#FF2B06"/></g></g><path d="M44.0390625 29.5" stroke="rgb(132,132,132)" stroke-width="1"/><path d="M483.791016 110 L483.791016 4.9 L496.623047 4.9 L496.623047 44 C499.664729 40.1 502.4 37.4 504.8 35.9 C508.956075 33.2 514.1 31.8 520.3 31.8 C531.364639 31.8 538.9 35.7 542.8 43.4 C544.957042 47.6 546 53.5 546 61 L546.026367 110 L532.837891 110 L532.837891 61.9 C532.837891 56.3 532.1 52.2 530.7 49.5 C528.370431 45.4 524 43.3 517.6 43.3 C512.259088 43.3 507.4 45.1 503.1 48.8 C498.78546 52.4 496.6 59.3 496.6 69.5 L496.623047 110 Z M384.057617 76.2 L397.388672 76.2 C397.721356 82.1 399.1 87 401.6 90.7 C406.299828 97.6 414.6 101.1 426.5 101.1 C431.797553 101.1 436.6 100.3 441 98.8 C449.477256 95.9 453.7 90.6 453.7 83 C453.707031 77.3 451.9 73.2 448.4 70.8 C444.748354 68.4 439.1 66.3 431.4 64.6 L417.207031 61.4 C407.939407 59.3 401.4 57 397.5 54.5 C390.877571 50.1 387.6 43.6 387.6 34.9 C387.550781 25.5 390.8 17.7 397.3 11.7 C403.828483 5.7 413 2.6 425 2.6 C435.95611 2.6 445.3 5.3 453 10.6 C460.63399 15.9 464.5 24.4 464.5 36 L451.140625 36 C450.427731 30.4 448.9 26.1 446.6 23.1 C442.253234 17.6 434.9 14.9 424.5 14.9 C416.18518 14.9 410.2 16.7 406.5 20.2 C402.854148 23.7 401 27.8 401 32.4 C401.024414 37.6 403.2 41.3 407.4 43.7 C410.24448 45.2 416.6 47.1 426.5 49.4 L441.160156 52.8 C448.241572 54.4 453.7 56.6 457.6 59.4 C464.21032 64.3 467.5 71.4 467.5 80.7 C467.537109 92.3 463.3 100.6 454.9 105.6 C446.447386 110.6 436.6 113.1 425.5 113.1 C412.454362 113.1 402.3 109.7 394.9 103.1 C387.526981 96.5 383.9 87.5 384.1 76.2 Z M612.539062 35.8 C617.624374 38.3 621.5 41.6 624.2 45.6 C626.725599 49.5 628.4 54 629.3 59.1 C630.052413 62.6 630.4 68.2 630.4 75.9 L574.470703 75.9 C574.708335 83.7 576.5 89.9 580 94.6 C583.381853 99.2 588.7 101.6 595.9 101.6 C602.558627 101.6 607.9 99.4 611.9 95 C614.178722 92.4 615.8 89.4 616.7 86 L629.363281 86 C629.030597 88.9 627.9 92 626 95.4 C624.171052 98.9 622.1 101.7 619.7 103.9 C615.842103 107.7 611 110.2 605.3 111.6 C602.17837 112.3 598.7 112.7 594.8 112.7 C585.28283 112.7 577.2 109.3 570.6 102.3 C564.014941 95.4 560.7 85.7 560.7 73.3 C560.711914 61 564 51.1 570.7 43.4 C577.346062 35.8 586 31.9 596.8 31.9 C602.202176 31.9 607.5 33.2 612.5 35.8 Z M574.827148 65.7 L617.244141 65.7 C616.721352 60.2 615.5 55.7 613.6 52.4 C610.091454 46.2 604.2 43.1 596 43.1 C590.106741 43.1 585.2 45.3 581.2 49.5 C577.179668 53.8 575.1 59.2 574.8 65.7 Z M652.175781 10.3 C655.169937 6 660.9 3.8 669.5 3.8 C670.30697 3.8 671.1 3.8 672 3.9 C672.849614 3.9 673.8 4 674.9 4.1 L674.916992 15.8 C673.586256 15.7 672.6 15.6 672 15.6 C671.435707 15.6 670.9 15.5 670.4 15.5 C666.457337 15.5 664.1 16.6 663.4 18.6 C662.607744 20.6 662.2 25.7 662.2 34 L674.916992 34 L674.916992 44.1 L662.084961 44.1 L662.084961 110 L649.395508 110 L649.395508 44.1 L638.773438 44.1 L638.773438 34 L649.395508 34 L649.395508 22 C649.585613 16.7 650.5 12.8 652.2 10.3 Z M692.739258 10.3 C695.733413 6 701.5 3.8 710.1 3.8 C710.870447 3.8 711.7 3.8 712.6 3.9 C713.41309 3.9 714.4 4 715.5 4.1 L715.480469 15.8 C714.149733 15.7 713.2 15.6 712.6 15.6 C711.999183 15.6 711.4 15.5 710.9 15.5 C707.020814 15.5 704.7 16.6 703.9 18.6 C703.17122 20.6 702.8 25.7 702.8 34 L715.480469 34 L715.480469 44.1 L702.648438 44.1 L702.648438 110 L689.958984 110 L689.958984 44.1 L679.336914 44.1 L679.336914 34 L689.958984 34 L689.958984 22 C690.149089 16.7 691.1 12.8 692.7 10.3 Z M727.813477 19.8 L727.813477 5.3 L740.645508 5.3 L740.645508 19.8 Z M727.813477 34 L740.645508 34 L740.645508 110 L727.813477 110 Z M807.300781 35.8 C812.386093 38.3 816.3 41.6 818.9 45.6 C821.487318 49.5 823.2 54 824.1 59.1 C824.814131 62.6 825.2 68.2 825.2 75.9 L769.232422 75.9 C769.470053 83.7 771.3 89.9 774.7 94.6 C778.143572 99.2 783.4 101.6 790.6 101.6 C797.320346 101.6 802.7 99.4 806.7 95 C808.940441 92.4 810.6 89.4 811.5 86 L824.125 86 C823.792316 88.9 822.7 92 820.8 95.4 C818.932771 98.9 816.8 101.7 814.5 103.9 C810.603822 107.7 805.8 110.2 800 111.6 C796.940089 112.3 793.4 112.7 789.5 112.7 C780.044549 112.7 772 109.3 765.4 102.3 C758.77666 95.4 755.5 85.7 755.5 73.3 C755.473633 61 758.8 51.1 765.5 43.4 C772.107781 35.8 780.8 31.9 791.5 31.9 C796.963894 31.9 802.2 33.2 807.3 35.8 Z M769.588867 65.7 L812.005859 65.7 C811.48307 60.2 810.3 55.7 808.4 52.4 C804.853173 46.2 799 43.1 790.8 43.1 C784.86846 43.1 779.9 45.3 775.9 49.5 C771.941386 53.8 769.8 59.2 769.6 65.7 Z M841.305664 5.3 L854.137695 5.3 L854.137695 110 L841.305664 110 Z M886.716797 93.2 C890.186215 98.8 895.7 101.5 903.4 101.5 C909.339222 101.5 914.2 99 918 93.9 C921.874205 88.7 923.8 81.4 923.8 71.9 C923.787109 62.2 921.8 55.1 917.9 50.4 C913.925436 45.8 909.1 43.5 903.3 43.5 C896.792285 43.5 891.6 46 887.5 50.9 C883.52065 55.8 881.5 63.1 881.5 72.7 C881.512695 80.9 883.2 87.7 886.7 93.2 Z M915.517578 36 C917.79884 37.4 920.4 39.9 923.3 43.5 L923.288086 4.9 L935.621094 4.9 L935.621094 110 L924.072266 110 L924.072266 99.4 C921.07811 104.1 917.5 107.5 913.5 109.6 C909.362935 111.7 904.7 112.7 899.4 112.7 C890.899046 112.7 883.5 109.1 877.3 102 C871.080698 94.8 868 85.3 868 73.4 C867.967773 62.3 870.8 52.7 876.5 44.5 C882.166207 36.4 890.3 32.3 900.8 32.3 C906.677764 32.3 911.6 33.5 915.5 36 Z M915.517578 36" fill="#000000"/></g></svg>